<mxfile host="app.diagrams.net" modified="2024-06-01T05:45:09.409Z" agent="Mozilla/5.0 (Windows NT 10.0; Win64; x64) AppleWebKit/537.36 (KHTML, like Gecko) Chrome/125.0.0.0 Safari/537.36 Edg/125.0.0.0" etag="HakJKZuLR9sX7MAco1iK" version="24.4.13" type="device">
  <diagram name="第 1 页" id="af4O3VGQyfd4FhIrozn2">
    <mxGraphModel dx="1379" dy="843" grid="1" gridSize="10" guides="1" tooltips="1" connect="1" arrows="1" fold="1" page="1" pageScale="1" pageWidth="827" pageHeight="1169" math="1" shadow="0">
      <root>
        <mxCell id="0" />
        <mxCell id="1" parent="0" />
        <mxCell id="15nYN1JYi9qk5ppO3P-W-1" style="edgeStyle=none;curved=1;rounded=0;orthogonalLoop=1;jettySize=auto;html=1;exitX=1;exitY=0.5;exitDx=0;exitDy=0;entryX=0;entryY=0.5;entryDx=0;entryDy=0;fontSize=12;startSize=8;endSize=8;" edge="1" parent="1" source="6CcTUv1etlSCQ1nMD_rA-1" target="6CcTUv1etlSCQ1nMD_rA-8">
          <mxGeometry relative="1" as="geometry" />
        </mxCell>
        <mxCell id="6CcTUv1etlSCQ1nMD_rA-1" value="Conv1d" style="rounded=1;whiteSpace=wrap;html=1;fillColor=#dae8fc;strokeColor=#6c8ebf;direction=east;" parent="1" vertex="1">
          <mxGeometry x="40" y="160" width="80" height="40" as="geometry" />
        </mxCell>
        <mxCell id="15nYN1JYi9qk5ppO3P-W-3" style="edgeStyle=none;curved=1;rounded=0;orthogonalLoop=1;jettySize=auto;html=1;exitX=1;exitY=0.5;exitDx=0;exitDy=0;entryX=0;entryY=0.5;entryDx=0;entryDy=0;fontSize=12;startSize=8;endSize=8;" edge="1" parent="1" source="6CcTUv1etlSCQ1nMD_rA-3" target="6CcTUv1etlSCQ1nMD_rA-5">
          <mxGeometry relative="1" as="geometry" />
        </mxCell>
        <mxCell id="6CcTUv1etlSCQ1nMD_rA-3" value="LSTM" style="rounded=1;whiteSpace=wrap;html=1;fillColor=#ffe6cc;strokeColor=#d79b00;direction=east;" parent="1" vertex="1">
          <mxGeometry x="280" y="160" width="80" height="40" as="geometry" />
        </mxCell>
        <mxCell id="15nYN1JYi9qk5ppO3P-W-4" style="edgeStyle=none;curved=1;rounded=0;orthogonalLoop=1;jettySize=auto;html=1;exitX=1;exitY=0.5;exitDx=0;exitDy=0;entryX=0;entryY=0.5;entryDx=0;entryDy=0;fontSize=12;startSize=8;endSize=8;" edge="1" parent="1" source="6CcTUv1etlSCQ1nMD_rA-5" target="6CcTUv1etlSCQ1nMD_rA-6">
          <mxGeometry relative="1" as="geometry" />
        </mxCell>
        <mxCell id="6CcTUv1etlSCQ1nMD_rA-5" value="Linear" style="rounded=1;whiteSpace=wrap;html=1;fillColor=#f5f5f5;fontColor=#333333;strokeColor=#666666;direction=east;" parent="1" vertex="1">
          <mxGeometry x="400" y="160" width="80" height="40" as="geometry" />
        </mxCell>
        <mxCell id="6CcTUv1etlSCQ1nMD_rA-6" value="Softplus" style="rounded=1;whiteSpace=wrap;html=1;fillColor=#e1d5e7;strokeColor=#9673a6;direction=east;" parent="1" vertex="1">
          <mxGeometry x="520" y="160" width="80" height="40" as="geometry" />
        </mxCell>
        <mxCell id="15nYN1JYi9qk5ppO3P-W-2" style="edgeStyle=none;curved=1;rounded=0;orthogonalLoop=1;jettySize=auto;html=1;exitX=1;exitY=0.5;exitDx=0;exitDy=0;entryX=0;entryY=0.5;entryDx=0;entryDy=0;fontSize=12;startSize=8;endSize=8;" edge="1" parent="1" source="6CcTUv1etlSCQ1nMD_rA-8" target="6CcTUv1etlSCQ1nMD_rA-3">
          <mxGeometry relative="1" as="geometry" />
        </mxCell>
        <mxCell id="6CcTUv1etlSCQ1nMD_rA-8" value="BatchNorm" style="rounded=1;whiteSpace=wrap;html=1;fillColor=#d5e8d4;strokeColor=#82b366;direction=east;" parent="1" vertex="1">
          <mxGeometry x="160" y="160" width="80" height="40" as="geometry" />
        </mxCell>
      </root>
    </mxGraphModel>
  </diagram>
</mxfile>
